<mxfile host="app.diagrams.net" modified="2023-08-26T22:42:49.851Z" agent="Mozilla/5.0 (Windows NT 10.0; Win64; x64) AppleWebKit/537.36 (KHTML, like Gecko) Chrome/116.0.0.0 Safari/537.36" etag="xrAKf_0XmvBz4XMjj1XT" version="21.6.9" type="github">
  <diagram name="Page-1" id="Oa0hQamzv2kmyjUkt0lA">
    <mxGraphModel dx="1674" dy="800" grid="1" gridSize="10" guides="1" tooltips="1" connect="1" arrows="1" fold="1" page="1" pageScale="1" pageWidth="850" pageHeight="1100" math="0" shadow="0">
      <root>
        <mxCell id="0" />
        <mxCell id="1" parent="0" />
        <mxCell id="XMvkEqn_HRBUMddVbU1A-5" value="serial in" style="edgeStyle=orthogonalEdgeStyle;rounded=0;orthogonalLoop=1;jettySize=auto;html=1;exitX=1;exitY=0.5;exitDx=0;exitDy=0;" edge="1" parent="1" source="XMvkEqn_HRBUMddVbU1A-1" target="XMvkEqn_HRBUMddVbU1A-4">
          <mxGeometry relative="1" as="geometry" />
        </mxCell>
        <mxCell id="XMvkEqn_HRBUMddVbU1A-1" value="" style="whiteSpace=wrap;html=1;aspect=fixed;" vertex="1" parent="1">
          <mxGeometry x="130" y="230" width="190" height="190" as="geometry" />
        </mxCell>
        <mxCell id="XMvkEqn_HRBUMddVbU1A-2" value="" style="triangle;whiteSpace=wrap;html=1;" vertex="1" parent="1">
          <mxGeometry x="130" y="360" width="50" height="50" as="geometry" />
        </mxCell>
        <mxCell id="XMvkEqn_HRBUMddVbU1A-3" value="clk" style="endArrow=classic;html=1;rounded=0;" edge="1" parent="1">
          <mxGeometry width="50" height="50" relative="1" as="geometry">
            <mxPoint x="60" y="380" as="sourcePoint" />
            <mxPoint x="130" y="380" as="targetPoint" />
          </mxGeometry>
        </mxCell>
        <mxCell id="XMvkEqn_HRBUMddVbU1A-9" value="par_out[4:0]" style="edgeStyle=orthogonalEdgeStyle;rounded=0;orthogonalLoop=1;jettySize=auto;html=1;exitX=1;exitY=0.5;exitDx=0;exitDy=0;" edge="1" parent="1" source="XMvkEqn_HRBUMddVbU1A-4">
          <mxGeometry x="-0.0723" relative="1" as="geometry">
            <mxPoint x="700" y="325" as="targetPoint" />
            <mxPoint as="offset" />
          </mxGeometry>
        </mxCell>
        <mxCell id="XMvkEqn_HRBUMddVbU1A-4" value="if (nrst){&lt;br&gt;if (shift_en)&lt;br&gt;par_out[0] = serial_in&lt;br&gt;par_out[1] = par_out[0]&amp;nbsp;&lt;br&gt;par_out[2] = par_out[1]&amp;nbsp;&lt;br&gt;par_out[3] = par_out[2]&lt;br&gt;}&amp;nbsp;&lt;br&gt;&amp;nbsp;else&amp;nbsp;&lt;br&gt;par_out[3:0] = 0&amp;nbsp;" style="whiteSpace=wrap;html=1;aspect=fixed;" vertex="1" parent="1">
          <mxGeometry x="379" y="230" width="190" height="190" as="geometry" />
        </mxCell>
        <mxCell id="XMvkEqn_HRBUMddVbU1A-6" value="serial in" style="endArrow=classic;html=1;rounded=0;" edge="1" parent="1">
          <mxGeometry width="50" height="50" relative="1" as="geometry">
            <mxPoint x="60" y="270" as="sourcePoint" />
            <mxPoint x="130" y="270" as="targetPoint" />
          </mxGeometry>
        </mxCell>
        <mxCell id="XMvkEqn_HRBUMddVbU1A-7" value="shift_en" style="endArrow=classic;html=1;rounded=0;entryX=0.25;entryY=0;entryDx=0;entryDy=0;" edge="1" parent="1" target="XMvkEqn_HRBUMddVbU1A-4">
          <mxGeometry width="50" height="50" relative="1" as="geometry">
            <mxPoint x="427" y="160" as="sourcePoint" />
            <mxPoint x="420" y="130" as="targetPoint" />
          </mxGeometry>
        </mxCell>
        <mxCell id="XMvkEqn_HRBUMddVbU1A-8" value="rst" style="endArrow=classic;html=1;rounded=0;" edge="1" parent="1">
          <mxGeometry width="50" height="50" relative="1" as="geometry">
            <mxPoint x="520" y="160" as="sourcePoint" />
            <mxPoint x="520" y="230" as="targetPoint" />
          </mxGeometry>
        </mxCell>
      </root>
    </mxGraphModel>
  </diagram>
</mxfile>
